ffmpeg started on 2025-06-19 at 09:43:00
Report written to "D:\Convert\FFMetrics\reports\psnr_report-6.txt"
Log level: 32
Command line:
ffmpeg -hide_banner -nostdin -i "G:\\\xc0\xed\xe8\xec\xe5\\[\xd2\xee\xef-4]\\Fate\\\xc4\xee\xef\xee\xeb\xed\xe5\xed\xe8\xe5 - \xcf\xee\xf1\xeb\xe5\xe4\xed\xe8\xe9 \xe2\xfb\xe7\xee\xe2 \xed\xe0 \xe1\xe8\xf1\\Fate_Extra_Last_Encore_[06]_[AniLibria_TV]_[HDTV-Rip_720p]_HEVC.mkv" -i "G:\\\xc0\xed\xe8\xec\xe5\\[\xd2\xee\xef-4]\\Fate\\\xc4\xee\xef\xee\xeb\xed\xe5\xed\xe8\xe5 - \xcf\xee\xf1\xeb\xe5\xe4\xed\xe8\xe9 \xe2\xfb\xe7\xee\xe2 \xed\xe0 \xe1\xe8\xf1\\Fate_Extra_Last_Encore_[06]_[AniLibria_TV]_[HDTV-Rip_720p].mkv" -lavfi "[0:v]settb=AVTB,setpts=PTS-STARTPTS,format=pix_fmts=yuv420p10,fps=24000/1001,scale=1280:720:flags=bicubic[main];[1:v]settb=AVTB,setpts=PTS-STARTPTS,format=pix_fmts=yuv420p,fps=24000/1001,scale=1280:720:flags=bicubic[ref];[main][ref]psnr=eof_action=endall:stats_file='D\\:/Convert/FFMetrics/logs/psnr_logfile-6.txt'" -f null -
Input #0, matroska,webm, from 'G:\Аниме\[Топ-4]\Fate\Дополнение - Последний вызов на бис\Fate_Extra_Last_Encore_[06]_[AniLibria_TV]_[HDTV-Rip_720p]_HEVC.mkv':
  Metadata:
    ENCODER         : Lavf61.7.100
  Duration: 00:24:00.17, start: -0.021000, bitrate: 1604 kb/s
  Stream #0:0(jpn): Video: hevc (Main 10), yuv420p10le(tv, bt709, progressive), 1280x720 [SAR 1:1 DAR 16:9], 23.81 fps, 23.81 tbr, 1k tbn (default)
      Metadata:
        ENCODER         : Lavc61.19.100 libx265
        BPS             : 1407387
        DURATION        : 00:24:00.054000000
        NUMBER_OF_FRAMES: 34526
        NUMBER_OF_BYTES : 253339332
        _STATISTICS_WRITING_APP: mkvpropedit v66.0.0 ('Josie') 64-bit
        _STATISTICS_WRITING_DATE_UTC: 2025-06-17 12:34:38
        _STATISTICS_TAGS: BPS DURATION NUMBER_OF_FRAMES NUMBER_OF_BYTES
  Stream #0:1(rus): Audio: aac (LC), 48000 Hz, stereo, fltp (default)
      Metadata:
        title           : Ados Amikiri Anzen Hekomi Silv
        ENCODER         : Lavc61.19.100 aac
        BPS             : 193409
        DURATION        : 00:24:00.149000000
        NUMBER_OF_FRAMES: 67508
        NUMBER_OF_BYTES : 34817316
        _STATISTICS_WRITING_APP: mkvpropedit v66.0.0 ('Josie') 64-bit
        _STATISTICS_WRITING_DATE_UTC: 2025-06-17 12:34:38
        _STATISTICS_TAGS: BPS DURATION NUMBER_OF_FRAMES NUMBER_OF_BYTES
  Stream #0:2(rus): Subtitle: ass (ssa) (default) (forced)
      Metadata:
        title           : Надписи
        BPS             : 17
        DURATION        : 00:21:04.140000000
        NUMBER_OF_FRAMES: 13
        NUMBER_OF_BYTES : 2740
        _STATISTICS_WRITING_APP: mkvpropedit v66.0.0 ('Josie') 64-bit
        _STATISTICS_WRITING_DATE_UTC: 2025-06-17 12:34:38
        _STATISTICS_TAGS: BPS DURATION NUMBER_OF_FRAMES NUMBER_OF_BYTES
  Stream #0:3(rus): Subtitle: ass (ssa)
      Metadata:
        title           : Полные
        BPS             : 151
        DURATION        : 00:22:08.100000000
        NUMBER_OF_FRAMES: 343
        NUMBER_OF_BYTES : 25206
        _STATISTICS_WRITING_APP: mkvpropedit v66.0.0 ('Josie') 64-bit
        _STATISTICS_WRITING_DATE_UTC: 2025-06-17 12:34:38
        _STATISTICS_TAGS: BPS DURATION NUMBER_OF_FRAMES NUMBER_OF_BYTES
Input #1, matroska,webm, from 'G:\Аниме\[Топ-4]\Fate\Дополнение - Последний вызов на бис\Fate_Extra_Last_Encore_[06]_[AniLibria_TV]_[HDTV-Rip_720p].mkv':
  Metadata:
    encoder         : libebml v1.4.2 + libmatroska v1.6.4
    creation_time   : 2024-12-27T09:57:49.000000Z
  Duration: 00:24:00.15, start: 0.000000, bitrate: 3142 kb/s
  Stream #1:0(jpn): Video: h264 (Main), yuv420p(tv, bt709, progressive), 1280x720, SAR 1:1 DAR 16:9, 23.81 fps, 23.81 tbr, 1k tbn (default)
      Metadata:
        BPS             : 2937528
        DURATION        : 00:24:00.058000000
        NUMBER_OF_FRAMES: 34526
        NUMBER_OF_BYTES : 528776488
        _STATISTICS_WRITING_APP: mkvmerge v66.0.0 ('Josie') 64-bit
        _STATISTICS_WRITING_DATE_UTC: 2024-12-27 09:57:49
        _STATISTICS_TAGS: BPS DURATION NUMBER_OF_FRAMES NUMBER_OF_BYTES
  Stream #1:1(rus): Audio: aac (LC), 48000 Hz, stereo, fltp (default)
      Metadata:
        title           : Ados Amikiri Anzen Hekomi Silv
        BPS             : 192091
        DURATION        : 00:24:00.149000000
        NUMBER_OF_FRAMES: 67507
        NUMBER_OF_BYTES : 34580001
        _STATISTICS_WRITING_APP: mkvmerge v66.0.0 ('Josie') 64-bit
        _STATISTICS_WRITING_DATE_UTC: 2024-12-27 09:57:49
        _STATISTICS_TAGS: BPS DURATION NUMBER_OF_FRAMES NUMBER_OF_BYTES
  Stream #1:2(rus): Subtitle: ass (ssa) (default) (forced)
      Metadata:
        title           : Надписи
        BPS             : 17
        DURATION        : 00:21:04.140000000
        NUMBER_OF_FRAMES: 13
        NUMBER_OF_BYTES : 2740
        _STATISTICS_WRITING_APP: mkvmerge v66.0.0 ('Josie') 64-bit
        _STATISTICS_WRITING_DATE_UTC: 2024-12-27 09:57:49
        _STATISTICS_TAGS: BPS DURATION NUMBER_OF_FRAMES NUMBER_OF_BYTES
  Stream #1:3(rus): Subtitle: ass (ssa)
      Metadata:
        title           : Полные
        BPS             : 151
        DURATION        : 00:22:08.100000000
        NUMBER_OF_FRAMES: 343
        NUMBER_OF_BYTES : 25206
        _STATISTICS_WRITING_APP: mkvmerge v66.0.0 ('Josie') 64-bit
        _STATISTICS_WRITING_DATE_UTC: 2024-12-27 09:57:49
        _STATISTICS_TAGS: BPS DURATION NUMBER_OF_FRAMES NUMBER_OF_BYTES
  Stream #1:4: Attachment: ttf
      Metadata:
        filename        : KozGoPr6N-Medium_0.otf
        mimetype        : application/x-truetype-font
  Stream #1:5: Attachment: ttf
      Metadata:
        filename        : 9511(1).ttf
        mimetype        : application/x-truetype-font
  Stream #1:6: Attachment: ttf
      Metadata:
        filename        : arx.ttf
        mimetype        : application/x-truetype-font
  Stream #1:7: Attachment: ttf
      Metadata:
        filename        : BwSurcoDEMO-Black.otf
        mimetype        : application/x-truetype-font
  Stream #1:8: Attachment: ttf
      Metadata:
        filename        : BwSurcoDEMO-BlackItalic.otf
        mimetype        : application/x-truetype-font
  Stream #1:9: Attachment: ttf
      Metadata:
        filename        : BwSurcoDEMO-Bold.otf
        mimetype        : application/x-truetype-font
  Stream #1:10: Attachment: ttf
      Metadata:
        filename        : BwSurcoDEMO-BoldItalic.otf
        mimetype        : application/x-truetype-font
  Stream #1:11: Attachment: ttf
      Metadata:
        filename        : BwSurcoDEMO-Book.otf
        mimetype        : application/x-truetype-font
  Stream #1:12: Attachment: ttf
      Metadata:
        filename        : BwSurcoDEMO-BookItalic.otf
        mimetype        : application/x-truetype-font
  Stream #1:13: Attachment: ttf
      Metadata:
        filename        : BwSurcoDEMO-Light.otf
        mimetype        : application/x-truetype-font
  Stream #1:14: Attachment: ttf
      Metadata:
        filename        : BwSurcoDEMO-LightItalic.otf
        mimetype        : application/x-truetype-font
  Stream #1:15: Attachment: ttf
      Metadata:
        filename        : BwSurcoDEMO-Medium.otf
        mimetype        : application/x-truetype-font
  Stream #1:16: Attachment: ttf
      Metadata:
        filename        : BwSurcoDEMO-MediumItalic.otf
        mimetype        : application/x-truetype-font
  Stream #1:17: Attachment: ttf
      Metadata:
        filename        : BwSurcoDEMO-Regular.otf
        mimetype        : application/x-truetype-font
  Stream #1:18: Attachment: ttf
      Metadata:
        filename        : BwSurcoDEMO-RegularItalic.otf
        mimetype        : application/x-truetype-font
Stream mapping:
  Stream #0:0 (hevc) -> settb:default
  Stream #1:0 (h264) -> settb:default
  psnr:default -> Stream #0:0 (wrapped_avframe)
  Stream #0:1 -> #0:1 (aac (native) -> pcm_s16le (native))
Output #0, null, to 'pipe:':
  Metadata:
    encoder         : Lavf61.7.100
  Stream #0:0: Video: wrapped_avframe, yuv420p10le(tv, bt709, progressive), 1280x720 [SAR 1:1 DAR 16:9], q=2-31, 200 kb/s, 23.98 fps, 23.98 tbn
      Metadata:
        encoder         : Lavc61.19.100 wrapped_avframe
  Stream #0:1(rus): Audio: pcm_s16le, 48000 Hz, stereo, s16, 1536 kb/s (default)
      Metadata:
        title           : Ados Amikiri Anzen Hekomi Silv
        _STATISTICS_TAGS: BPS DURATION NUMBER_OF_FRAMES NUMBER_OF_BYTES
        BPS             : 193409
        DURATION        : 00:24:00.149000000
        NUMBER_OF_FRAMES: 67508
        NUMBER_OF_BYTES : 34817316
        _STATISTICS_WRITING_APP: mkvpropedit v66.0.0 ('Josie') 64-bit
        _STATISTICS_WRITING_DATE_UTC: 2025-06-17 12:34:38
        encoder         : Lavc61.19.100 pcm_s16le
frame=  426 fps=0.0 q=-0.0 size=N/A time=00:00:17.76 bitrate=N/A speed=34.4x    frame=  920 fps=899 q=-0.0 size=N/A time=00:00:38.37 bitrate=N/A speed=37.5x    frame= 1333 fps=862 q=-0.0 size=N/A time=00:00:55.59 bitrate=N/A speed=35.9x    frame= 1713 fps=835 q=-0.0 size=N/A time=00:01:11.44 bitrate=N/A speed=34.8x    frame= 1765 fps=686 q=-0.0 size=N/A time=00:01:13.61 bitrate=N/A speed=28.6x    frame= 1932 fps=626 q=-0.0 size=N/A time=00:01:20.58 bitrate=N/A speed=26.1x    frame= 2103 fps=583 q=-0.0 size=N/A time=00:01:27.71 bitrate=N/A speed=24.3x    frame= 2290 fps=555 q=-0.0 size=N/A time=00:01:35.51 bitrate=N/A speed=23.1x    frame= 2529 fps=544 q=-0.0 size=N/A time=00:01:45.48 bitrate=N/A speed=22.7x    frame= 2661 fps=514 q=-0.0 size=N/A time=00:01:50.98 bitrate=N/A speed=21.5x    frame= 2843 fps=500 q=-0.0 size=N/A time=00:01:58.57 bitrate=N/A speed=20.8x    frame= 2954 fps=477 q=-0.0 size=N/A time=00:02:03.20 bitrate=N/A speed=19.9x    frame= 3030 fps=451 q=-0.0 size=N/A time=00:02:06.37 bitrate=N/A speed=18.8x    frame= 3166 fps=438 q=-0.0 size=N/A time=00:02:12.04 bitrate=N/A speed=18.3x    frame= 3294 fps=426 q=-0.0 size=N/A time=00:02:17.38 bitrate=N/A speed=17.8x    frame= 3451 fps=418 q=-0.0 size=N/A time=00:02:23.93 bitrate=N/A speed=17.4x    frame= 3838 fps=437 q=-0.0 size=N/A time=00:02:40.07 bitrate=N/A speed=18.2x    frame= 4225 fps=455 q=-0.0 size=N/A time=00:02:56.21 bitrate=N/A speed=  19x    frame= 4591 fps=468 q=-0.0 size=N/A time=00:03:11.48 bitrate=N/A speed=19.5x    frame= 4987 fps=483 q=-0.0 size=N/A time=00:03:27.99 bitrate=N/A speed=20.1x    frame= 5027 fps=464 q=-0.0 size=N/A time=00:03:29.66 bitrate=N/A speed=19.3x    frame= 5356 fps=472 q=-0.0 size=N/A time=00:03:43.38 bitrate=N/A speed=19.7x    frame= 5698 fps=480 q=-0.0 size=N/A time=00:03:57.65 bitrate=N/A speed=  20x    frame= 6054 fps=489 q=-0.0 size=N/A time=00:04:12.50 bitrate=N/A speed=20.4x    frame= 6382 fps=494 q=-0.0 size=N/A time=00:04:26.18 bitrate=N/A speed=20.6x    frame= 6608 fps=493 q=-0.0 size=N/A time=00:04:35.60 bitrate=N/A speed=20.5x    frame= 6945 fps=498 q=-0.0 size=N/A time=00:04:49.66 bitrate=N/A speed=20.8x    frame= 7258 fps=502 q=-0.0 size=N/A time=00:05:02.71 bitrate=N/A speed=  21x    frame= 7579 fps=506 q=-0.0 size=N/A time=00:05:16.10 bitrate=N/A speed=21.1x    frame= 7891 fps=510 q=-0.0 size=N/A time=00:05:29.12 bitrate=N/A speed=21.3x    frame= 8168 fps=511 q=-0.0 size=N/A time=00:05:40.67 bitrate=N/A speed=21.3x    frame= 8492 fps=515 q=-0.0 size=N/A time=00:05:54.18 bitrate=N/A speed=21.5x    frame= 8914 fps=523 q=-0.0 size=N/A time=00:06:11.78 bitrate=N/A speed=21.8x    frame= 8963 fps=511 q=-0.0 size=N/A time=00:06:13.83 bitrate=N/A speed=21.3x    frame= 9450 fps=524 q=-0.0 size=N/A time=00:06:34.14 bitrate=N/A speed=21.8x    frame= 9758 fps=525 q=-0.0 size=N/A time=00:06:46.98 bitrate=N/A speed=21.9x    frame= 9920 fps=520 q=-0.0 size=N/A time=00:06:53.74 bitrate=N/A speed=21.7x    frame=10352 fps=528 q=-0.0 size=N/A time=00:07:11.76 bitrate=N/A speed=  22x    frame=10623 fps=528 q=-0.0 size=N/A time=00:07:23.06 bitrate=N/A speed=  22x    frame=10883 fps=528 q=-0.0 size=N/A time=00:07:33.91 bitrate=N/A speed=  22x    frame=11285 fps=533 q=-0.0 size=N/A time=00:07:50.67 bitrate=N/A speed=22.3x    frame=11338 fps=523 q=-0.0 size=N/A time=00:07:52.88 bitrate=N/A speed=21.8x    frame=11731 fps=529 q=-0.0 size=N/A time=00:08:09.28 bitrate=N/A speed=22.1x    frame=11941 fps=526 q=-0.0 size=N/A time=00:08:18.03 bitrate=N/A speed=21.9x    frame=11971 fps=516 q=-0.0 size=N/A time=00:08:19.29 bitrate=N/A speed=21.5x    frame=12380 fps=522 q=-0.0 size=N/A time=00:08:36.34 bitrate=N/A speed=21.8x    frame=12569 fps=518 q=-0.0 size=N/A time=00:08:44.23 bitrate=N/A speed=21.6x    frame=12841 fps=519 q=-0.0 size=N/A time=00:08:55.57 bitrate=N/A speed=21.6x    frame=13204 fps=522 q=-0.0 size=N/A time=00:09:10.71 bitrate=N/A speed=21.8x    frame=13367 fps=518 q=-0.0 size=N/A time=00:09:17.51 bitrate=N/A speed=21.6x    frame=13821 fps=525 q=-0.0 size=N/A time=00:09:36.45 bitrate=N/A speed=21.9x    frame=14115 fps=526 q=-0.0 size=N/A time=00:09:48.71 bitrate=N/A speed=21.9x    frame=14291 fps=523 q=-0.0 size=N/A time=00:09:56.05 bitrate=N/A speed=21.8x    frame=14635 fps=525 q=-0.0 size=N/A time=00:10:10.40 bitrate=N/A speed=21.9x    frame=14946 fps=527 q=-0.0 size=N/A time=00:10:23.37 bitrate=N/A speed=  22x    frame=15321 fps=530 q=-0.0 size=N/A time=00:10:39.01 bitrate=N/A speed=22.1x    frame=15732 fps=535 q=-0.0 size=N/A time=00:10:56.15 bitrate=N/A speed=22.3x    frame=15994 fps=535 q=-0.0 size=N/A time=00:11:07.08 bitrate=N/A speed=22.3x    frame=16512 fps=543 q=-0.0 size=N/A time=00:11:28.68 bitrate=N/A speed=22.6x    frame=16730 fps=541 q=-0.0 size=N/A time=00:11:37.78 bitrate=N/A speed=22.5x    frame=16930 fps=538 q=-0.0 size=N/A time=00:11:46.12 bitrate=N/A speed=22.4x    frame=17269 fps=540 q=-0.0 size=N/A time=00:12:00.26 bitrate=N/A speed=22.5x    frame=17398 fps=535 q=-0.0 size=N/A time=00:12:05.64 bitrate=N/A speed=22.3x    frame=17831 fps=540 q=-0.0 size=N/A time=00:12:23.70 bitrate=N/A speed=22.5x    frame=18248 fps=544 q=-0.0 size=N/A time=00:12:41.09 bitrate=N/A speed=22.7x    frame=18454 fps=542 q=-0.0 size=N/A time=00:12:49.68 bitrate=N/A speed=22.6x    frame=18923 fps=548 q=-0.0 size=N/A time=00:13:09.24 bitrate=N/A speed=22.8x    frame=19058 fps=543 q=-0.0 size=N/A time=00:13:14.87 bitrate=N/A speed=22.7x    frame=19288 fps=542 q=-0.0 size=N/A time=00:13:24.47 bitrate=N/A speed=22.6x    frame=19679 fps=545 q=-0.0 size=N/A time=00:13:40.77 bitrate=N/A speed=22.7x    frame=19926 fps=544 q=-0.0 size=N/A time=00:13:51.08 bitrate=N/A speed=22.7x    frame=20345 fps=548 q=-0.0 size=N/A time=00:14:08.55 bitrate=N/A speed=22.9x    frame=20703 fps=550 q=-0.0 size=N/A time=00:14:23.48 bitrate=N/A speed=22.9x    frame=20868 fps=547 q=-0.0 size=N/A time=00:14:30.36 bitrate=N/A speed=22.8x    frame=21267 fps=550 q=-0.0 size=N/A time=00:14:47.01 bitrate=N/A speed=22.9x    frame=21400 fps=546 q=-0.0 size=N/A time=00:14:52.55 bitrate=N/A speed=22.8x    frame=21716 fps=547 q=-0.0 size=N/A time=00:15:05.73 bitrate=N/A speed=22.8x    frame=22193 fps=552 q=-0.0 size=N/A time=00:15:25.63 bitrate=N/A speed=  23x    frame=22371 fps=549 q=-0.0 size=N/A time=00:15:33.05 bitrate=N/A speed=22.9x    frame=22751 fps=551 q=-0.0 size=N/A time=00:15:48.90 bitrate=N/A speed=  23x    frame=23013 fps=551 q=-0.0 size=N/A time=00:15:59.83 bitrate=N/A speed=  23x    frame=23261 fps=550 q=-0.0 size=N/A time=00:16:10.17 bitrate=N/A speed=22.9x    frame=23776 fps=556 q=-0.0 size=N/A time=00:16:31.65 bitrate=N/A speed=23.2x    frame=23900 fps=552 q=-0.0 size=N/A time=00:16:36.82 bitrate=N/A speed=  23x    frame=24170 fps=551 q=-0.0 size=N/A time=00:16:48.09 bitrate=N/A speed=  23x    frame=24653 fps=556 q=-0.0 size=N/A time=00:17:08.23 bitrate=N/A speed=23.2x    frame=25275 fps=563 q=-0.0 size=N/A time=00:17:34.17 bitrate=N/A speed=23.5x    frame=25888 fps=570 q=-0.0 size=N/A time=00:17:59.74 bitrate=N/A speed=23.8x    frame=26485 fps=577 q=-0.0 size=N/A time=00:18:24.64 bitrate=N/A speed=24.1x    frame=27094 fps=584 q=-0.0 size=N/A time=00:18:50.04 bitrate=N/A speed=24.3x    frame=27652 fps=589 q=-0.0 size=N/A time=00:19:13.31 bitrate=N/A speed=24.6x    frame=27766 fps=585 q=-0.0 size=N/A time=00:19:18.07 bitrate=N/A speed=24.4x    frame=28135 fps=587 q=-0.0 size=N/A time=00:19:33.46 bitrate=N/A speed=24.5x    frame=28523 fps=588 q=-0.0 size=N/A time=00:19:49.64 bitrate=N/A speed=24.5x    frame=28794 fps=588 q=-0.0 size=N/A time=00:20:00.94 bitrate=N/A speed=24.5x    frame=29317 fps=592 q=-0.0 size=N/A time=00:20:22.76 bitrate=N/A speed=24.7x    frame=29487 fps=589 q=-0.0 size=N/A time=00:20:29.85 bitrate=N/A speed=24.6x    frame=29639 fps=586 q=-0.0 size=N/A time=00:20:36.19 bitrate=N/A speed=24.5x    frame=29984 fps=587 q=-0.0 size=N/A time=00:20:50.58 bitrate=N/A speed=24.5x    frame=30191 fps=585 q=-0.0 size=N/A time=00:20:59.21 bitrate=N/A speed=24.4x    frame=30482 fps=585 q=-0.0 size=N/A time=00:21:11.35 bitrate=N/A speed=24.4x    frame=31012 fps=590 q=-0.0 size=N/A time=00:21:33.45 bitrate=N/A speed=24.6x    frame=31337 fps=590 q=-0.0 size=N/A time=00:21:47.01 bitrate=N/A speed=24.6x    frame=31793 fps=593 q=-0.0 size=N/A time=00:22:06.03 bitrate=N/A speed=24.7x    frame=32101 fps=593 q=-0.0 size=N/A time=00:22:18.87 bitrate=N/A speed=24.7x    frame=32368 fps=592 q=-0.0 size=N/A time=00:22:30.01 bitrate=N/A speed=24.7x    frame=32642 fps=592 q=-0.0 size=N/A time=00:22:41.44 bitrate=N/A speed=24.7x    frame=32672 fps=587 q=-0.0 size=N/A time=00:22:42.69 bitrate=N/A speed=24.5x    frame=32937 fps=586 q=-0.0 size=N/A time=00:22:53.74 bitrate=N/A speed=24.4x    frame=33179 fps=585 q=-0.0 size=N/A time=00:23:03.84 bitrate=N/A speed=24.4x    frame=33287 fps=582 q=-0.0 size=N/A time=00:23:08.34 bitrate=N/A speed=24.3x    frame=33504 fps=580 q=-0.0 size=N/A time=00:23:17.39 bitrate=N/A speed=24.2x    frame=33599 fps=577 q=-0.0 size=N/A time=00:23:21.35 bitrate=N/A speed=  24x    frame=33816 fps=575 q=-0.0 size=N/A time=00:23:30.40 bitrate=N/A speed=  24x    frame=34199 fps=577 q=-0.0 size=N/A time=00:23:46.38 bitrate=N/A speed=24.1x    [Parsed_psnr_10 @ 0000026a5bc5b440] PSNR y:35.988061 u:46.034473 v:44.694689 average:37.502447 min:8.100499 max:60.734624
[out#0/null @ 0000026a5b32c340] video:14836KiB audio:270032KiB subtitle:0KiB other streams:0KiB global headers:0KiB muxing overhead: unknown
frame=34527 fps=580 q=-0.0 Lsize=N/A time=00:24:00.06 bitrate=N/A speed=24.2x    
